<svg width="866" height="400" viewBox="0 0 866 259" fill="none" xmlns="http://www.w3.org/2000/svg">
<path d="M581 82L794.75 10.9859L794.75 153.014L581 82Z" fill="url(#paint0_linear_202_150)"/>
<path d="M576 177L789.75 105.986L789.75 248.014L576 177Z" fill="url(#paint1_linear_202_150)"/>
<rect x="480" y="91" width="24" height="77" fill="#B9200C"/>
<path d="M498 38H594C610.569 38 624 51.4315 624 68V192C624 208.569 610.569 222 594 222H498V38Z" fill="#DA230A"/>
<g clip-path="url(#clip0_202_150)">
<path d="M524 66H561C572.046 66 581 74.9543 581 86V174C581 185.046 572.046 194 561 194H524V66Z" fill="black"/>
<path d="M510.5 70L586.5 133" stroke="white" stroke-opacity="0.5" stroke-width="8"/>
<path d="M510.5 95L586.5 158" stroke="white" stroke-opacity="0.5" stroke-width="8"/>
</g>
<rect x="8" y="30" width="4" height="80" fill="#0B2F64"/>
<rect x="6" y="133" width="4" height="80" fill="#0B2F64"/>
<rect y="18" width="489" height="224" rx="30" fill="url(#paint2_linear_202_150)"/>
<path d="M620 63L620 101" stroke="#FBFF3A" stroke-width="8" stroke-linecap="round"/>
<path d="M620 158L620 196" stroke="#FBFF3A" stroke-width="8" stroke-linecap="round"/>
<defs>
<linearGradient id="paint0_linear_202_150" x1="618.5" y1="82" x2="785.5" y2="82" gradientUnits="userSpaceOnUse">
<stop stop-color="#FBFF3A"/>
<stop offset="1" stop-color="#FBFF3A" stop-opacity="0"/>
</linearGradient>
<linearGradient id="paint1_linear_202_150" x1="613.5" y1="177" x2="780.5" y2="177" gradientUnits="userSpaceOnUse">
<stop stop-color="#FBFF3A"/>
<stop offset="1" stop-color="#FBFF3A" stop-opacity="0"/>
</linearGradient>
<linearGradient id="paint2_linear_202_150" x1="244.5" y1="18" x2="244.5" y2="242" gradientUnits="userSpaceOnUse">
<stop stop-color="#0F3978"/>
<stop offset="1" stop-color="#001027"/>
</linearGradient>
<clipPath id="clip0_202_150">
<rect width="57" height="128" fill="white" transform="translate(524 66)"/>
</clipPath>
</defs>
</svg>
